<?xml version="1.0" encoding="utf-8"?>
<!-- Generator: Adobe Illustrator 23.0.2, SVG Export Plug-In . SVG Version: 6.00 Build 0)  -->
<svg version="1.1" id="Layer_1" xmlns="http://www.w3.org/2000/svg" xmlns:xlink="http://www.w3.org/1999/xlink" x="0px" y="0px"
	 viewBox="0 0 283 55.6" style="enable-background:new 0 0 283 55.6;" xml:space="preserve">
<style type="text/css">
	.st0{clip-path:url(#SVGID_4_);}
	.st1{clip-path:url(#SVGID_6_);fill:#071B2C;}
	.st2{clip-path:url(#SVGID_8_);fill:#071B2C;}
	.st3{clip-path:url(#SVGID_10_);fill:#071B2C;}
	.st4{clip-path:url(#SVGID_12_);fill:#071B2C;}
	.st5{clip-path:url(#SVGID_14_);fill:#071B2C;}
	.st6{clip-path:url(#SVGID_16_);fill:#071B2C;}
	.st7{clip-path:url(#SVGID_18_);fill:#071B2C;}
	.st8{clip-path:url(#SVGID_20_);fill:#071B2C;}
	.st9{clip-path:url(#SVGID_22_);fill:#071B2C;}
	.st10{clip-path:url(#SVGID_24_);fill:#2E7DE1;}
	.st11{clip-path:url(#SVGID_26_);fill:#071B2C;}
	.st12{clip-path:url(#SVGID_28_);fill:#071B2C;}
	.st13{clip-path:url(#SVGID_30_);fill:#2E7DE1;}
	.st14{clip-path:url(#SVGID_32_);fill:#2E7DE1;}
	.st15{clip-path:url(#SVGID_34_);fill:#2E7DE1;}
	.st16{clip-path:url(#SVGID_36_);fill:#2E7DE1;}
	.st17{clip-path:url(#SVGID_38_);fill:#2E7DE1;}
	.st18{clip-path:url(#SVGID_40_);fill:#2E7DE1;}
	.st19{opacity:0.36;clip-path:url(#SVGID_42_);}
</style>
<g>
	<g>
		<defs>
			<rect id="SVGID_1_" x="-34" y="-257" width="351" height="362.6"/>
		</defs>
		<clipPath id="SVGID_2_">
			<use xlink:href="#SVGID_1_"  style="overflow:visible;"/>
		</clipPath>
	</g>
	<g>
		<defs>
			<rect id="SVGID_3_" x="-34" y="-257" width="351" height="362.6"/>
		</defs>
		<clipPath id="SVGID_4_">
			<use xlink:href="#SVGID_3_"  style="overflow:visible;"/>
		</clipPath>
		<g class="st0">
			<g>
				<defs>
					<rect id="SVGID_5_" x="-34" y="-257" width="351" height="362.6"/>
				</defs>
				<clipPath id="SVGID_6_">
					<use xlink:href="#SVGID_5_"  style="overflow:visible;"/>
				</clipPath>
				<path class="st1" d="M160.8,40.6h-2.1l-0.9-1.5c-1.6,1-3.4,1.5-5.3,1.5c-4.1,0-6.2-1.8-6.2-5.2c0-3.5,2.3-5.3,7-5.3
					c1.3,0,2.7,0.1,4,0.3v-1.2c0-1.7-1.4-2.5-4.1-2.5c-1.6,0-3.4,0.3-5.1,0.8l-0.4,0.1v-3l0.2-0.1c1.8-0.5,3.6-0.8,5.3-0.8
					c5.1,0,7.6,1.8,7.6,5.4V40.6z M153.3,32.9c-2.3,0-3.5,0.8-3.5,2.4s0.9,2.4,2.7,2.4c1.9,0,3.5-0.5,4.8-1.4v-3
					C156,33,154.6,32.9,153.3,32.9"/>
			</g>
			<g>
				<defs>
					<rect id="SVGID_7_" x="-34" y="-257" width="351" height="362.6"/>
				</defs>
				<clipPath id="SVGID_8_">
					<use xlink:href="#SVGID_7_"  style="overflow:visible;"/>
				</clipPath>
				<path class="st2" d="M72.4,40.6h-3.5V29.9c0-1.8-1.4-3.3-3.2-3.4h-0.2c-1.5,0-3,0.6-4.4,1.9v12.1h-3.5V17.2h1.8
					c0.9,0,1.7,0.8,1.7,1.7v6.2c1.4-1,3-1.5,4.8-1.5c4.3,0,6.4,2.2,6.4,6.4L72.4,40.6C72.3,40.6,72.4,40.6,72.4,40.6z"/>
			</g>
			<g>
				<defs>
					<rect id="SVGID_9_" x="-34" y="-257" width="351" height="362.6"/>
				</defs>
				<clipPath id="SVGID_10_">
					<use xlink:href="#SVGID_9_"  style="overflow:visible;"/>
				</clipPath>
				<path class="st3" d="M89.2,40.6h-2.1l-0.9-1.5c-1.6,1-3.4,1.5-5.3,1.5c-4.1,0-6.2-1.8-6.2-5.2c0-3.5,2.3-5.3,7-5.3
					c1.3,0,2.7,0.1,4,0.3v-1.2c0-1.7-1.4-2.5-4.1-2.5c-1.7,0-3.4,0.3-5.1,0.8l-0.4-0.1v-3l0.2-0.1c1.8-0.5,3.6-0.8,5.3-0.8
					c5,0,7.6,1.8,7.6,5.4V40.6z M81.7,32.9c-2.3,0-3.5,0.8-3.5,2.4s0.9,2.4,2.7,2.4c1.9,0,3.5-0.5,4.8-1.4v-3
					C84.4,33,83,32.9,81.7,32.9"/>
			</g>
			<g>
				<defs>
					<rect id="SVGID_11_" x="-34" y="-257" width="351" height="362.6"/>
				</defs>
				<clipPath id="SVGID_12_">
					<use xlink:href="#SVGID_11_"  style="overflow:visible;"/>
				</clipPath>
				<polygon class="st4" points="105.1,40.6 91.6,40.6 91.6,38 91.7,37.9 101.2,26.5 91.9,26.5 91.9,23.6 105.3,23.6 105.3,26.3 
					105.3,26.4 95.9,37.8 105.1,37.8 				"/>
			</g>
			<g>
				<defs>
					<rect id="SVGID_13_" x="-34" y="-257" width="351" height="362.6"/>
				</defs>
				<clipPath id="SVGID_14_">
					<use xlink:href="#SVGID_13_"  style="overflow:visible;"/>
				</clipPath>
				<path class="st5" d="M115.6,40.6c-5.8,0-8.8-2.9-8.8-8.7c0-5.5,2.6-8.3,7.8-8.3c4.8,0,7.3,2.4,7.3,7.2c0,0.7,0,1.4-0.1,2.1v0.3
					h-11.5c0.1,3,1.9,4.5,5.6,4.5c1.8,0,3.5-0.2,4.9-0.6l0.4-0.1v3l-0.2,0.1C119.5,40.4,117.7,40.6,115.6,40.6 M110.3,30.2h8.3
					c-0.1-2.5-1.4-3.7-3.9-3.7C112,26.5,110.6,27.7,110.3,30.2"/>
			</g>
			<g>
				<defs>
					<rect id="SVGID_15_" x="-34" y="-257" width="351" height="362.6"/>
				</defs>
				<clipPath id="SVGID_16_">
					<use xlink:href="#SVGID_15_"  style="overflow:visible;"/>
				</clipPath>
				<path class="st6" d="M128.3,40.6h-3.5V17.2h1.8c0.9,0,1.7,0.8,1.7,1.7V40.6z"/>
			</g>
			<g>
				<defs>
					<rect id="SVGID_17_" x="-34" y="-257" width="351" height="362.6"/>
				</defs>
				<clipPath id="SVGID_18_">
					<use xlink:href="#SVGID_17_"  style="overflow:visible;"/>
				</clipPath>
				<path class="st7" d="M139.9,40.6c-6,0-9-3-9-8.8c0-5.4,3-8.2,9-8.2c1.6,0,3.1,0.2,4.4,0.5l0.2,0.1v2.9l-0.4-0.1
					c-1.3-0.3-2.8-0.5-4.5-0.5c-3.6,0-5.4,1.7-5.4,5.3c0,4,1.8,5.9,5.4,5.9c1.6,0,3.1-0.2,4.5-0.5l0.4-0.1V40l-0.2,0.1
					C142.9,40.4,141.4,40.6,139.9,40.6"/>
			</g>
			<g>
				<defs>
					<rect id="SVGID_19_" x="-34" y="-257" width="351" height="362.6"/>
				</defs>
				<clipPath id="SVGID_20_">
					<use xlink:href="#SVGID_19_"  style="overflow:visible;"/>
				</clipPath>
				<path class="st8" d="M170.2,40.6c-2,0-4-0.3-5.9-0.8l-0.2-0.1v-3.1l0.4,0.1c1.9,0.6,3.8,0.9,5.8,0.9c3.6,0,3.6-1.5,3.6-2.1
					c0-0.8-0.3-1.9-2.4-1.9h-2.3c-3.7,0-5.6-1.7-5.6-5.1c0-3.3,2.4-5,7.1-5c2,0,4,0.3,5.9,0.8l0.2,0.1v3.1l-0.4-0.1
					c-1.9-0.6-3.8-0.9-5.7-0.9c-3.8,0-3.8,1.5-3.8,2.1c0,1.3,0.7,1.9,2.3,1.9h2.3c3.9,0,5.9,1.7,5.9,5.1
					C177.3,38.9,174.9,40.6,170.2,40.6"/>
			</g>
			<g>
				<defs>
					<rect id="SVGID_21_" x="-34" y="-257" width="351" height="362.6"/>
				</defs>
				<clipPath id="SVGID_22_">
					<use xlink:href="#SVGID_21_"  style="overflow:visible;"/>
				</clipPath>
				<path class="st9" d="M187.4,40.6h-3c-2.9,0-4.4-1.6-4.4-4.7v-15h2.3l0.6,2.7h4.5v2.9h-4v9.1c0,1.4,0.5,2,1.7,2h2.3L187.4,40.6
					L187.4,40.6z"/>
			</g>
			<g>
				<defs>
					<rect id="SVGID_23_" x="-34" y="-257" width="351" height="362.6"/>
				</defs>
				<clipPath id="SVGID_24_">
					<use xlink:href="#SVGID_23_"  style="overflow:visible;"/>
				</clipPath>
				<path class="st10" d="M46.1,6.4H9.8C8,6.4,6.5,7.9,6.5,9.7V46c0,1.8,1.5,3.3,3.3,3.3h36.3c1.8,0,3.3-1.5,3.3-3.3V9.7
					C49.4,7.9,48,6.4,46.1,6.4 M39.2,39.9H21.8c-2.8,0-5.5-1-7.7-2.8c-2.8-2.3-4.3-5.7-4.3-9.2c0-6.6,5.4-12,12-12
					c3.1,0,6,1.2,8.2,3.2c0.9-0.4,1.9-0.6,2.9-0.6c4.3,0,7.9,3.4,8.1,7.7c2.9,0.8,5.1,3.5,5.1,6.7C46.2,36.8,43.1,39.9,39.2,39.9"/>
			</g>
			<g>
				<defs>
					<rect id="SVGID_25_" x="-34" y="-257" width="351" height="362.6"/>
				</defs>
				<clipPath id="SVGID_26_">
					<use xlink:href="#SVGID_25_"  style="overflow:visible;"/>
				</clipPath>
				<path class="st11" d="M21.8,18.9c2.3,0,4.5,0.9,6.2,2.5L15.3,34c-1.6-1.7-2.5-3.9-2.5-6.2C12.8,22.9,16.8,18.9,21.8,18.9"/>
			</g>
			<g>
				<defs>
					<rect id="SVGID_27_" x="-34" y="-257" width="351" height="362.6"/>
				</defs>
				<clipPath id="SVGID_28_">
					<use xlink:href="#SVGID_27_"  style="overflow:visible;"/>
				</clipPath>
				<path class="st12" d="M33,21.6c-0.9,0-1.8,0.3-2.6,0.7l-0.2,0.2l-13,13c1.4,0.9,3,1.3,4.7,1.3h6.6l9.6-9.6v-0.6
					C38.1,23.9,35.8,21.6,33,21.6"/>
			</g>
			<g>
				<defs>
					<rect id="SVGID_29_" x="-34" y="-257" width="351" height="362.6"/>
				</defs>
				<clipPath id="SVGID_30_">
					<use xlink:href="#SVGID_29_"  style="overflow:visible;"/>
				</clipPath>
				<path class="st13" d="M39.6,29.1c2,0.2,3.6,1.9,3.6,3.9c0,2.2-1.8,3.9-3.9,3.9h-7.5L39.6,29.1"/>
			</g>
			<g>
				<defs>
					<rect id="SVGID_31_" x="-34" y="-257" width="351" height="362.6"/>
				</defs>
				<clipPath id="SVGID_32_">
					<use xlink:href="#SVGID_31_"  style="overflow:visible;"/>
				</clipPath>
				<path class="st14" d="M210.9,39.7c-1.5,0.6-3.1,0.8-5,0.8c-6.1,0-9.2-3-9.2-8.9c0-5.6,3.1-8.4,9.2-8.4c1.9,0,3.5,0.3,5,0.8v2.9
					c-1.5-0.6-3.1-1-4.8-1c-4.1,0-6.1,1.9-6.1,5.6c0,4.1,2,6.1,6.1,6.1c1.7,0,3.3-0.3,4.8-1V39.7z"/>
			</g>
			<g>
				<defs>
					<rect id="SVGID_33_" x="-34" y="-257" width="351" height="362.6"/>
				</defs>
				<clipPath id="SVGID_34_">
					<use xlink:href="#SVGID_33_"  style="overflow:visible;"/>
				</clipPath>
				<polygon class="st15" points="216.7,23.5 216.7,37.8 223.5,37.8 223.5,40.5 213.6,40.5 213.6,23.5 				"/>
			</g>
			<g>
				<defs>
					<rect id="SVGID_35_" x="-34" y="-257" width="351" height="362.6"/>
				</defs>
				<clipPath id="SVGID_36_">
					<use xlink:href="#SVGID_35_"  style="overflow:visible;"/>
				</clipPath>
				<path class="st16" d="M223.8,32c0-5.8,2.8-8.6,8.5-8.6c5.6,0,8.4,2.9,8.4,8.6s-2.8,8.6-8.4,8.6C226.9,40.6,224.1,37.7,223.8,32
					 M232.3,37.8c3.4,0,5.1-2,5.1-5.9s-1.7-5.8-5.1-5.8c-3.5,0-5.3,1.9-5.3,5.8C227.1,35.9,228.8,37.8,232.3,37.8"/>
			</g>
			<g>
				<defs>
					<rect id="SVGID_37_" x="-34" y="-257" width="351" height="362.6"/>
				</defs>
				<clipPath id="SVGID_38_">
					<use xlink:href="#SVGID_37_"  style="overflow:visible;"/>
				</clipPath>
				<path class="st17" d="M243.4,33.8V23.5h3.1v10.3c0,2.7,1.4,4.1,4.2,4.1s4.2-1.4,4.2-4.1V23.5h3.2v10.3c0,4.5-2.4,6.8-7.3,6.8
					S243.4,38.3,243.4,33.8"/>
			</g>
			<g>
				<defs>
					<rect id="SVGID_39_" x="-34" y="-257" width="351" height="362.6"/>
				</defs>
				<clipPath id="SVGID_40_">
					<use xlink:href="#SVGID_39_"  style="overflow:visible;"/>
				</clipPath>
				<path class="st18" d="M261.4,40.5v-17h6.7c5.6,0,8.4,2.7,8.4,8c0,6-2.8,9-8.4,9H261.4z M268,37.7c3.5,0,5.3-2.1,5.3-6.2
					c0-3.5-1.8-5.3-5.3-5.3h-3.5v11.5H268z"/>
			</g>
			<g>
				<defs>
					<rect id="SVGID_41_" x="-34" y="-257" width="351" height="362.6"/>
				</defs>
				<clipPath id="SVGID_42_">
					<use xlink:href="#SVGID_41_"  style="overflow:visible;"/>
				</clipPath>
				<g class="st19">
					<g>
						<g>
							<defs>
								<rect id="SVGID_43_" x="253.4" y="44" width="28.1" height="14.4"/>
							</defs>
							<clipPath id="SVGID_44_">
								<use xlink:href="#SVGID_43_"  style="overflow:visible;"/>
							</clipPath>
						</g>
					</g>
				</g>
			</g>
		</g>
	</g>
</g>
</svg>
